<svg width="445" height="114" viewBox="0 0 445 114" fill="none" xmlns="http://www.w3.org/2000/svg">
    <path d="M83.7017 112.014C69.2086 112.014 55.7489 106.502 41.1335 106.502C33.069 106.502 25.0046 106.502 16.9401 106.502C12.2356 106.502 3.77152 108.79 3.77152 102.367C3.77152 92.7717 3.77152 83.176 3.77152 73.5803C3.77152 62.92 -0.463952 39.9209 5.30275 30.859C17.9847 10.9302 37.9829 1.76562 61.3458 1.76562C182.492 1.76562 304.332 4.52184 424.86 4.52184C450.464 4.52184 442.009 39.8848 442.009 58.268C442.009 63.5254 445.328 88.9632 440.631 92.7207C434.066 97.9726 426.805 97.8962 418.735 98.8456C395.707 101.555 373.667 103.746 350.442 103.746C298.696 103.746 246.572 106.502 195.481 106.502C155.953 106.502 115.408 112.014 75.4331 112.014" stroke="#94A74C" stroke-width="3" stroke-linecap="round"/>
</svg>
